<svg version="1" xmlns="http://www.w3.org/2000/svg" width="684" height="684" viewBox="0 0 513.000000 513.000000"><path d="M70.5 2.7c-10 5.4-11.2 18.7-2.1 25.4 2.4 1.9 4.4 2.4 8.6 2.4 6.6 0 10.9-2.7 13.5-8.5 2-4.5 1.4-11.2-1.3-14.7-4.6-5.8-12.8-7.8-18.7-4.6zM429.3 3.5c-10.4 6.3-8.8 22.9 2.6 26.3 5.2 1.6 7.6 1.5 11.4-.4 4.4-2.2 6.2-4.3 7.7-8.8 2.3-7.1-.3-13.7-6.9-17.4-5.1-2.9-9.6-2.8-14.8.3zM70.8 62.7c-4.9 2.4-7.7 6.2-8.4 11.7-1.2 8.4 6 16.6 14.7 16.6 5.1 0 11.4-4.3 13.3-9 2-5 2-6.9.1-11.8-3.1-7.6-12.2-11.1-19.7-7.5zM250 61.9c-9.6 3.1-20.4 12.6-29.4 25.6-13.7 19.7-29.4 56.6-40.7 95.9-3.5 12-10.9 41.3-12.3 48.6-.3 1.4-1 5-1.6 8-.6 3-1.3 6.8-1.5 8.5-.3 1.6-1.2 6.4-2 10.5s-1.6 9.1-1.9 11c-1 7.8-1.9 13.6-2.2 15.5-.5 2.3-1.7 12.4-1.7 14.2 0 1-4.2 1.3-17.4 1.3-15.8 0-17.3-.2-17.4-1.8-.3-4.1-.7-9.3-1.3-19.1-.4-5.7-.9-11.8-1.1-13.5-.2-1.7-.9-6.7-1.5-11.1-6.6-47.4-19.7-72.2-39.2-74.2-16-1.6-29.8 15.2-37.7 46.2-1.3 5.1-5.1 26.6-5.7 32.5-.3 2.5-.7 5.8-.9 7.5-2.6 17.8-2.6 80.8-.1 96.5.3 1.4.7 5 1 8 1.2 13.3 4.7 30.3 8.8 43 8 25.1 19.2 37.2 33.7 36.6 3.1-.1 7.3-1 9.3-2 10.8-5.2 20-21.2 25.5-44.5 1.4-5.8 2.7-11.2 2.9-11.9.3-.9 5.7-1.2 22.7-1.2h22.4l12.9 13.1c7.1 7.1 14.6 13.9 16.6 15 2.9 1.5 5.7 1.9 12.8 1.9h9l.1 4.2c.5 24.8 8.9 49.9 22.9 68.6 11.5 15.4 16.2 18.9 24.1 17.8 5.6-.8 9.2-3.9 18.3-15.6 13.8-17.9 21.5-38 24.2-63.3.1-.9.2-4 .3-6.7l.1-5h9.2c11.7 0 13.4-1 29.7-17.5l12.5-12.5h22.3c17 0 22.5.3 22.7 1.2.2.7 1.5 6 2.9 11.8 7.2 31 20.1 47.4 36.6 46.6 23.5-1.1 37.6-34.6 42.8-101.6 1.5-18.5.8-70-1.1-81-.2-1.4-.7-5.2-1-8.5-.7-6.3-1.3-10.6-2.1-14.1-.3-1.2-.7-3.9-1-6-1.1-7.4-4.7-20.9-7.7-28.7-8.1-21.1-18.6-31.1-31.9-30.2-7.4.4-12.6 3.2-18.2 9.6-6.4 7.3-13.4 22.6-16.3 35.4-.6 2.6-3.4 16.3-4 19.5-.2 1.4-.6 3.6-.9 5-.3 1.4-.7 4.7-1 7.5-.3 2.7-.7 6.5-1 8.4-.6 5-1.7 19.6-1.9 27.1l-.3 6.5-17.1.3c-19.2.3-17.5 1-18.7-8.3-.7-6.1-1.5-11-2.2-15-.3-1.7-.7-4.5-.9-6.4-.2-1.9-.8-5.7-1.3-8.5-.6-2.8-1.3-6.5-1.6-8.1-2.3-14-9-43.2-14.6-63.7-11.5-42.1-26.3-78.8-40.5-100.4-7.3-11.1-18.2-22.3-25.2-25.8-5.7-2.9-15.7-4.2-20.2-2.7zm19.7 44.1c2.8 4.1 7.5 12.7 10.5 19 8.8 18.3 9.8 20.9 8.7 21.5-.5.4-5.6 1.5-11.2 2.5-10.5 1.9-31.3 2.4-37.2.9-1.6-.4-4.6-1-6.6-1.3-2-.3-4.3-.8-5.2-1.1-1-.3-2.4-.7-3.2-1-1.2-.3-1.1-1.2.6-5.2 8.8-20.7 20.9-41.5 27.7-47.4l3.5-3.1 3.7 3.9c2.1 2.1 6 7.2 8.7 11.3zm-47.2 70.9c13.5 3.1 18.4 3.6 36 3.5 12.7 0 18.3-.5 27-2.4 16.2-3.4 14.4-4.2 18.2 8.5 8.8 28.9 18.5 73.9 21.8 100.4.4 3 .8 6.1 1 7 .4 2.3 1.4 11.6 2 18.6.8 8.6 3.6 13.9 8.9 16.4 4 2 5.9 2.1 38.5 2.1 33.7 0 34.4 0 38.3-2.2 5.7-3.2 7.1-6.6 7.8-18.2l.5-9.9 14.7-.1 14.8-.1-.5 23c-.2 12.6-.6 24.1-.9 25.5-.2 1.4-.7 6.5-1.1 11.5-.3 4.9-.8 9.7-1 10.5-.2.8-.6 3.7-1 6.5-1.2 10.3-4.8 25-8.8 36l-1.4 4-1.5-3c-2.4-4.6-6.5-19.6-8.3-30-1.9-10.9-2.9-14.3-5-16.7-5-5.8-5.3-5.8-43.6-5.8h-35.2l-4.1 2.5c-2.3 1.3-9.7 8.1-16.5 15L310.6 392H203.3l-12.9-13c-7.1-7.2-14.6-14-16.6-15-3.5-1.9-5.8-2-39-2-31.3.1-35.7.3-38.5 1.8-5.5 3-7.3 6.4-9.3 17.4-2.9 16.3-6.2 28.5-9.1 33.9-1.1 2.1-1.2 2-2.9-2.3-1.9-4.9-5.9-19.6-6.6-23.7-.2-1.4-.6-3.6-.9-4.8-.3-1.2-.7-4.1-1-6.5-.3-2.4-.7-5.4-1-6.8-.3-1.4-.7-5.9-1-10-.3-4.1-.8-8.9-1-10.5-.3-1.7-.7-13.6-1-26.5l-.5-23.5H91.7l.2 8c.2 10.6.8 13.7 3.4 16.7 5 5.7 5.6 5.8 42.8 5.8 32.6 0 34.5-.1 38.5-2.1 5.3-2.5 7.9-7.6 8.9-17.4 1.1-10.6 1.3-12.7 1.9-17 .3-2.2.8-6.3 1.2-9 .3-2.8 1.2-8.2 2-12 .7-3.9 1.6-8.6 1.9-10.5.3-1.9.7-4.6 1-6 .3-1.4.7-4.1 1-6 2.5-14.9 10.3-46.9 16.6-67.3 2.6-8.4 3.2-9.6 4.7-8.8.9.4 4 1.4 6.7 2zM81 225.8c1.1 3.5 2.3 7.6 2.6 9.1 1.7 7.6 4.4 22.3 5 27.6.3 3.3.8 6.3 1.1 6.7.5 1 .5 1-11.3 1.4-14.5.4-14.2.5-13.2-6.8.4-3.3 1-7 1.2-8.2.2-1.1.7-4.1 1.1-6.6 1-6.8 4.3-19.7 6.7-26.8 2-5.7 2.4-6.2 3.5-4.5.8 1 2.3 4.6 3.3 8.1zm358-5.6c3.3 7.5 8.1 28.7 9.6 42.3.3 2.7.7 5.5.9 6.2.6 1.7-1 2-11.9 2.1-9.1.1-14.3-.9-13.2-2.6.2-.4.7-3.3 1-6.5.8-6.9 3.1-18.8 5.1-27.1 1.8-6.9 5.7-18.6 6.2-18.6.2 0 1.3 1.9 2.3 4.2zm-167.5 210c-1 14-4.6 26.4-11.3 38.7l-3 5.4-1.8-2.9c-.9-1.6-2.4-3.9-3.1-5.2-4.5-7.5-8.9-23.3-9.9-36l-.6-8.2H272.1l-.6 8.2z"/><path d="M245.5 212.8c-8.6 2.4-14.2 5.7-20.4 12-6.2 6.4-10.7 15.3-12.1 23.8-1.3 7.9-1.3 68.7 0 75.5 2.4 12.4 10.9 24.5 21.5 30.6 13.4 7.7 29.3 8 43.7.7 6.3-3.2 15.5-12.4 18.5-18.4 4.8-9.7 5.2-13.9 5.3-49.8 0-19.5-.4-36-1-39.2-3.1-16.2-14.8-29.6-30.5-34.8-6.4-2.1-18.1-2.3-25-.4zm18.7 30.4c7.5 4.3 7.7 5.1 7.8 42.1.1 37.6-.2 39-7.5 43.2-5.1 3-8.6 3.1-13.9.5-8.3-4.1-8.1-2.9-8.1-43 0-33.9.1-35.6 2-38.2 2.8-3.7 8.4-6.7 12.4-6.8 1.8 0 5.1 1 7.3 2.2zM430.2 62.7c-14.5 7.1-7.5 30.1 8.6 27.9 5.7-.8 9.6-3.6 11.6-8.6 2-5.1 2-6.9 0-12-3-7.5-12.7-11-20.2-7.3zM70 122.9c-5.1 2.7-8.4 9.1-7.6 14.7.7 5.7 3 9.1 7.7 11.5 7.7 3.9 16.6 1 20-6.4 2.3-5.2 2.4-7.5.3-12.7-1.2-2.9-2.9-4.8-5.9-6.5-4.9-2.9-9.7-3.1-14.5-.6zM429.9 123c-4.1 2.2-7.9 8.8-7.9 13.6.1 6.8 6.3 13.3 13.4 14.1 8.2 1 16.6-6.2 16.6-14.1 0-5.2-3.1-10.6-7.5-13.1-5-3-9.7-3.1-14.6-.5z"/></svg>